PathFileType	4	(X/Y/Z)	C:\Users\u0145647\OneDrive - KU Leuven\KU Leuven\c3d2osim\CP16\T0\Data\Processed\ViconC3D\CP16_T0_11_gapFilled.trc
DataRate	CameraRate	NumFrames	NumMarkers	Units	OrigDataRate	OrigDataStartFrame	OrigNumFrames
100.000000	100.000000	9	47	mm	100.000000	84	666
Frame#	Time	C7			T10			CLAV			STRN			LSHO			RSHO			RBAK			LASI			RASI			LPSI			RPSI			LLAT			RLAT			LF1			LF2			LF3			LTHI			LKNE			LMEK			RF1			RF2			RF3			RTHI			RKNE			RMEK			LT1			LT2			LT3			LTIB			LMM			LANK			RT1			RT2			RT3			RTIB			RANK			RMM			LHEE			LSTL			LLCA			LTOE			LCM5			RHEE			RSTL			RLCA			RTOE			RCM5
		X1	Y1	Z1	X2	Y2	Z2	X3	Y3	Z3	X4	Y4	Z4	X5	Y5	Z5	X6	Y6	Z6	X7	Y7	Z7	X8	Y8	Z8	X9	Y9	Z9	X10	Y10	Z10	X11	Y11	Z11	X12	Y12	Z12	X13	Y13	Z13	X14	Y14	Z14	X15	Y15	Z15	X16	Y16	Z16	X17	Y17	Z17	X18	Y18	Z18	X19	Y19	Z19	X20	Y20	Z20	X21	Y21	Z21	X22	Y22	Z22	X23	Y23	Z23	X24	Y24	Z24	X25	Y25	Z25	X26	Y26	Z26	X27	Y27	Z27	X28	Y28	Z28	X29	Y29	Z29	X30	Y30	Z30	X31	Y31	Z31	X32	Y32	Z32	X33	Y33	Z33	X34	Y34	Z34	X35	Y35	Z35	X36	Y36	Z36	X37	Y37	Z37	X38	Y38	Z38	X39	Y39	Z39	X40	Y40	Z40	X41	Y41	Z41	X42	Y42	Z42	X43	Y43	Z43	X44	Y44	Z44	X45	Y45	Z45	X46	Y46	Z46	X47	Y47	Z47

84	0.83	-2030.4	1443.9	-274.25	-2137.8	1188.3	-233.49	-1918.3	1346.2	-233.32	-1921.5	1172.5	-206.63	-1984.4	1350.7	-422.02	-2024.6	1441.7	-91.114	-2111	1398.4	-158.88	-2006.3	917.04	-325.96	-2023.3	918.03	-81.393	-2170	960	-253.14	-2175.9	948.29	-174.92	-2060.2	991.39	-346.1	-2070.2	1001.5	-63.498	-2037.4	676.46	-364.81	-2022.7	723.24	-365.6	-2068.7	713.19	-372.21	-2011.4	580.29	-391.45	-2029.4	455.44	-331.62	-2070	451.73	-221.71	-2024.7	704.72	-17.771	-2060.5	727.54	-27.583	-2026.9	747.75	-25.858	-2001.6	627.8	40.759	-1944	482.22	-0.22197	-1916.6	482.58	-115.75	-2058.7	379.43	-353.39	-2029.8	360.73	-330.76	-2057.1	328.93	-353.67	-2042.5	249.9	-398.43	-2145.6	55.785	-297.28	-2138	65.643	-387.63	-2016.8	366.64	-12.689	-2007.4	400.82	-3.6017	-1979.9	376.3	-9.7283	-2057.8	278.68	11.359	-2178.1	165.53	-69.383	-2145.9	173.65	-157.24	-2201.2	45.921	-353.92	-2128.5	22.451	-303.66	-2126.6	37.632	-396.18	-2023.1	35.193	-375.53	-2041.9	20.69	-418.63	-2228.1	185.53	-121.13	-2151.1	139.52	-157.24	-2174.9	134.55	-64.405	-2078.1	92.335	-69.865	-2120.4	93.262	-33.37
85	0.84	-2021	1444.4	-275.12	-2129.5	1189	-234.66	-1909.5	1346.2	-234.12	-1913.3	1172.3	-207.23	-1975	1351.5	-422.82	-2016.3	1441.5	-91.892	-2100.9	1397.6	-159.83	-1999.2	917.47	-327.19	-2015.1	918.62	-82.806	-2162.6	960.86	-253.47	-2168.1	949.03	-175.14	-2053.2	991.86	-346.95	-2061.8	1002.2	-64.407	-2032.9	676.82	-366.48	-2017.7	723.69	-367.01	-2062	713.23	-375.71	-2007.6	580	-393.15	-2028.2	455.56	-333.85	-2068.3	452.07	-223.96	-2015.1	706.83	-18.06	-2051.2	729.13	-27.941	-2018	749.94	-26.217	-1990.6	629.92	40.215	-1929.9	485.57	-0.40213	-1900.9	486.56	-115.68	-2058.2	379.73	-355.59	-2029.5	360.88	-332.8	-2056.8	329.36	-355.63	-2042.2	249.66	-400.01	-2145.4	56.214	-297.58	-2138	65.594	-387.96	-1999.4	368	-14.046	-1991.3	402.62	-5.5862	-1962.5	378.99	-10.41	-2039	279.54	10.163	-2150.8	159.5	-72.606	-2117.1	168.37	-159.85	-2201.2	46.1	-353.99	-2128.3	22.632	-303.82	-2126.6	37.51	-396.38	-2023.1	35.093	-375.91	-2042	20.381	-419.08	-2200.6	176.59	-125.57	-2120.8	133.9	-159.69	-2146.5	129.24	-66.811	-2047.3	91.6	-70.61	-2090.3	90.932	-34.79
86	0.85	-2011.8	1444.8	-275.93	-2121.1	1189.4	-235.55	-1900.9	1346.1	-234.59	-1905.2	1172.2	-208.27	-1965.4	1352	-423.76	-2007.7	1440.9	-92.398	-2090.7	1396.8	-160.78	-1992.4	917.94	-328.65	-2006.8	918.93	-84.107	-2155	961.54	-253.71	-2160	949.48	-175.44	-2046.1	992.16	-347.82	-2053	1002.5	-65.403	-2028.7	677.19	-368.41	-2012.8	723.96	-368.72	-2058.6	715.47	-374.81	-2004.8	580.6	-395.68	-2026.9	455.61	-336.33	-2066.5	452.49	-226.22	-2005.6	708.25	-18.65	-2041.8	730.17	-28.558	-2008.8	751.25	-26.793	-1980.4	631.73	39.729	-1916.3	488.72	-0.60967	-1885.4	490.66	-115.67	-2057.4	379.94	-357.77	-2028.4	361.11	-335.64	-2056.2	329.42	-357.59	-2042.4	250.06	-402.37	-2145.2	56.67	-298.19	-2137.8	65.509	-388.17	-1982.1	368.8	-15.286	-1975.3	403.98	-7.6452	-1945.6	381	-10.624	-2019.8	279.62	9.0559	-2122.3	152.49	-75.294	-2087.5	162.66	-161.95	-2201.3	46.5	-354.07	-2127.9	23.045	-304.14	-2126.6	37.406	-396.65	-2023.2	35.101	-376.32	-2042	20.067	-419.45	-2172.2	167.14	-129.11	-2089.4	127.96	-161.79	-2116.7	122.72	-69.2	-2015.7	90.549	-71.202	-2059.1	87.995	-35.924
87	0.86	-2002.5	1445	-276.53	-2112.6	1189.6	-236.32	-1892.5	1345.7	-235.28	-1896.3	1172.2	-209.69	-1955.5	1352.2	-424.8	-1999	1439.8	-92.368	-2080.6	1396	-161.73	-1985.5	918.2	-330.14	-1998.1	918.81	-85.386	-2147.3	961.92	-253.76	-2151.9	949.68	-175.59	-2039.3	992.59	-348.56	-2044.2	1002.5	-66.279	-2024.5	677.56	-370.35	-2008.2	724.01	-370.97	-2053.7	716.46	-376.69	-2002.1	580.67	-397.92	-2025.5	455.72	-338.79	-2064.5	452.88	-228.42	-1996.1	709.34	-19.155	-2032.5	730.71	-29.335	-2000	752.55	-27.194	-1970.4	633.02	39.129	-1902.4	490.8	-1.1111	-1870.6	494.02	-115.53	-2056.7	380.19	-359.89	-2027.8	360.94	-337.5	-2055.8	329.79	-359.7	-2042.5	250.21	-404.33	-2145.1	57.126	-298.42	-2137.8	65.48	-388.56	-1964.7	369.06	-16.376	-1959.3	404.76	-9.486	-1928.7	382.55	-10.714	-1999.9	278.75	7.9483	-2093.2	145.71	-77.085	-2057.3	156.79	-163.52	-2201.3	46.749	-354.19	-2128	23.544	-304.21	-2126.5	37.28	-397.09	-2023.3	35.11	-376.71	-2042.2	19.758	-419.92	-2142.7	156.99	-131.95	-2057.6	122	-163.4	-2085.8	115.93	-70.971	-1983.3	89.331	-71.47	-2026.9	84.918	-36.549
88	0.87	-1993.6	1445	-277	-2104.2	1189.6	-236.77	-1883.7	1345.3	-235.89	-1888.1	1171.7	-210.34	-1946	1352.4	-425.44	-1990.2	1438.2	-91.86	-2071.4	1395.5	-162.04	-1978.6	918.37	-331.71	-1989.3	918.36	-86.642	-2139.6	962.15	-253.83	-2143.6	949.55	-175.67	-2032.2	992.79	-349.24	-2035.2	1002.1	-67.082	-2020.6	677.92	-372.55	-2003.5	724.05	-372.97	-2049.6	716.89	-378.18	-1999.6	580.52	-400.5	-2023.9	455.68	-341.34	-2062.5	453.31	-230.68	-1986.6	709.94	-19.832	-2023	730.84	-30.128	-1991	753.27	-27.698	-1960.2	633.54	38.402	-1889.3	492.9	-1.2924	-1856.1	497.29	-115.52	-2055.9	380.46	-362.13	-2026	361.79	-340.44	-2055.2	329.96	-361.6	-2041.2	249.02	-405.22	-2145	57.715	-298.78	-2137.7	65.215	-388.97	-1947.1	368.69	-17.171	-1943.1	404.69	-11.028	-1911.4	383.28	-10.841	-1978.7	276.59	7.0301	-2062.9	137.9	-78.797	-2026.2	150.7	-164.65	-2201.4	47.074	-354.36	-2128	23.981	-304.31	-2126.6	37	-397.54	-2023.4	35.077	-377.19	-2042.4	19.529	-420.21	-2112.3	146.61	-134.16	-2025.3	116.2	-164.32	-2053.8	109.03	-72.182	-1949.8	87.904	-71.685	-1993.9	81.877	-36.807
89	0.88	-1984.7	1444.7	-277.41	-2095.7	1189.3	-237.09	-1875	1344.9	-236.36	-1881.1	1169.7	-210.49	-1936.2	1352.3	-426.07	-1981.1	1435.9	-91.003	-2062.1	1394.7	-161.85	-1971.6	918.04	-333.41	-1980.2	917.6	-87.992	-2131.7	962.16	-253.93	-2135.1	949.18	-175.79	-2025	992.96	-349.9	-2026	1001.2	-67.969	-2016.6	677.88	-374.67	-1998.9	723.98	-375.09	-2046.8	716.03	-378.78	-1997.3	580.19	-403.12	-2022.7	455.82	-343.7	-2060.2	453.58	-232.81	-1977	710.18	-20.454	-2013.5	730.73	-30.925	-1981.9	753.64	-28.249	-1950.7	633.96	37.541	-1876.7	494.77	-1.5161	-1842	500.2	-115.28	-2054.8	380.48	-364.3	-2025.7	361.51	-342.4	-2054.3	330.32	-363.39	-2041.7	249.69	-407.54	-2144.9	58.311	-299.09	-2137.7	65.221	-389.31	-1928.8	367.35	-17.791	-1926.9	403.29	-11.972	-1894	383.9	-10.575	-1956.4	273.53	6.5132	-2031.6	130.33	-79.649	-1994.7	144.65	-165.24	-2201.3	47.23	-354.61	-2128.2	24.543	-304.38	-2126.7	36.568	-397.97	-2023.5	34.927	-377.64	-2042.5	19.246	-420.58	-2080.9	135.88	-135.6	-1992	111.17	-164.35	-2021.1	102.21	-72.66	-1916.7	87.869	-70.666	-1959.8	78.871	-36.66
90	0.89	-1975.9	1444.4	-277.25	-2087.1	1188.8	-237.12	-1866.9	1343.8	-236.97	-1872.4	1169.5	-211.47	-1926.3	1351.9	-426.83	-1971.9	1433.3	-89.589	-2054.9	1394.8	-163.07	-1964.7	918.08	-335.28	-1970.9	916.45	-89.428	-2123.8	962.07	-253.79	-2126.5	948.5	-175.87	-2017.7	992.98	-350.56	-2016.6	1000.1	-68.75	-2012.9	677.76	-376.8	-1994.9	723.82	-378.52	-2039.3	718.69	-383.27	-1995.7	580.33	-406.05	-2020.7	455.64	-345.88	-2057.4	453.78	-234.8	-1967.4	710.18	-21.063	-2004.1	730.37	-31.714	-1972.7	753.64	-28.865	-1941.2	633.65	36.639	-1863.8	495.78	-2.0759	-1827.3	503.36	-115.94	-2053.5	380.45	-366.02	-2024.2	361.6	-344.63	-2053.3	330.16	-365.46	-2041.2	249.47	-409.12	-2144.7	58.778	-299.36	-2137.6	65.362	-389.68	-1909.9	365.28	-18.154	-1909.9	401.52	-12.135	-1876.2	383.85	-10.851	-1932.8	270.15	6.3927	-1999.7	122.7	-79.588	-1962.9	138.82	-165.12	-2201.3	47.623	-354.64	-2128.1	24.898	-304.5	-2126.9	36.332	-398.23	-2023.6	34.908	-378.02	-2042.7	19.128	-420.83	-2048.9	125.39	-136.11	-1958.3	105.64	-164.06	-1987.6	95.194	-72.708	-1882.2	87.329	-70.3	-1925.2	76.257	-36.047
91	0.9	-1967.3	1443.8	-276.76	-2078.5	1188	-236.89	-1858.1	1342.8	-236.89	-1863.2	1168.4	-212.67	-1916.7	1351.3	-427.36	-1962.7	1430.2	-87.5	-2045.4	1393	-162.28	-1957.8	917.66	-337.02	-1961.6	915.17	-90.892	-2115.8	961.64	-253.76	-2117.8	947.55	-175.89	-2010.3	992.96	-351.3	-2006.9	998.58	-69.598	-2008.9	677.51	-378.97	-1990.2	723.22	-380.7	-2036.5	717.95	-383.34	-1993.4	579.76	-408.42	-2018.4	455.21	-347.98	-2054.2	453.96	-236.48	-1958	710.12	-21.522	-1994.7	729.79	-32.503	-1963.1	753.26	-29.506	-1931.5	632.86	35.65	-1851	496.67	-2.7709	-1813.9	505.66	-116.43	-2051.7	380.36	-367.72	-2022.6	361.17	-346.26	-2051.9	330.18	-367.82	-2039.9	248.49	-410.34	-2144.4	59.276	-299.57	-2137.6	65.566	-389.96	-1890.2	362.82	-18.28	-1892.3	399	-12.515	-1857.9	383.56	-10.914	-1908.2	267.14	6.7309	-1967.2	115.54	-78.971	-1931.2	133.65	-164.31	-2201.2	47.932	-354.65	-2128.2	25.437	-304.32	-2127.3	36.464	-397.98	-2023.6	34.74	-378.34	-2042.8	19.017	-421.11	-2016.4	115.05	-135.38	-1925	101.03	-163.03	-1953	89.387	-71.627	-1847.8	87.71	-69.243	-1890	74.384	-34.83
92	0.91	-1958.7	1443	-275.87	-2069.8	1186.8	-236.48	-1849.9	1341.5	-237.19	-1854.4	1167.1	-214.07	-1907.3	1350.5	-427.73	-1953.7	1426.9	-85.078	-2033.6	1389.5	-159.31	-1950.5	917.07	-338.87	-1951.7	913.3	-92.705	-2107.9	961.02	-253.6	-2109	946.31	-175.89	-2002.9	992.78	-351.92	-1996.9	996.64	-70.586	-2004.7	677.21	-381.12	-1985.4	722.61	-382.76	-2029.8	718.98	-387.23	-1990.6	579.01	-410.95	-2015.4	454.73	-349.76	-2050	453.72	-237.99	-1948.4	709.35	-22.335	-1985.1	728.98	-33.319	-1953.8	752.73	-30.167	-1921.5	631.46	34.39	-1838	497.04	-3.8724	-1801.4	507.23	-117.01	-2049.4	379.89	-369.23	-2019.9	361.01	-348.44	-2049.7	329.41	-368.43	-2038.8	247.87	-411.56	-2143.9	59.601	-299.67	-2137.5	65.689	-390.07	-1870.1	360.58	-18.232	-1874.1	396.54	-12.472	-1839	383.08	-11.451	-1881.2	263	6.9858	-1934.3	109.27	-77.022	-1899.8	128.78	-163	-2201.2	48.378	-354.59	-2127.8	25.638	-304.51	-2127.3	36.321	-398.13	-2023.5	34.589	-378.65	-2043	18.838	-421.37	-1983.8	105.82	-133.19	-1891.2	96.834	-161.53	-1918.7	84.053	-69.187	-1813.4	88.572	-68.003	-1854.5	73.051	-33.054
